<?xml version="1.0" encoding="utf-8"?>
<!-- Generator: Adobe Illustrator 18.1.1, SVG Export Plug-In . SVG Version: 6.00 Build 0)  -->
<svg version="1.1" id="Шар_1" xmlns="http://www.w3.org/2000/svg" xmlns:xlink="http://www.w3.org/1999/xlink" x="0px" y="0px"
	 viewBox="0 0 366.3 152.6" enable-background="new 0 0 366.3 152.6" xml:space="preserve">
<g>
	<g id="XMLID_1_">
		<g>
			
			<path id="XMLID_123_" fill="#000080" d="M334.2,106.4c-14.4,0-22-7.9-22.8-23.5h54.8l0-0.4c0-0.4,0-0.9,0-1.3
				c0-24.2-11.4-37.5-32-37.5H334c-20.8,0-33.2,14-33.2,37.5c0,17.2,10.2,34.5,32.9,34.5h0.6c23,0,30-16.9,31.9-24.3h-10.6
				C351.5,106.3,338.5,106.3,334.2,106.4z M334.3,53.1c9,0.1,19.5,2.6,21.3,21.8h-44C313.5,55.4,325.5,53.1,334.3,53.1z"/>
			<path id="XMLID_122_" fill="#000080" d="M9.7,56.7V44.3H0v70.2h10.5V69.5c0-10.1,2.7-16.4,15.8-16.4h16.2v-9.5h-14
				C20,43.6,12.2,49.1,9.7,56.7z"/>
			<rect id="XMLID_121_" x="138.5" y="43.6" fill="#000080" width="10.6" height="70.8"/>
			<path id="XMLID_120_" fill="#000080" d="M282.2,84.8c0,17.8-11.7,21.5-21.6,21.5c-8,0-18.6-2.3-18.6-22V43.6h-10.5l0,40
				c0,13.7,2.9,32,27.6,32h1.5c9.7,0,17.9-6,22.4-16v14.9h9.9V43.6h-10.6V84.8z"/>
			<path id="XMLID_117_" fill="#000080" d="M211.3,57.3c-4.5-9-12.2-13.6-22.9-13.7l-0.6,0c-19.7,0-31,13.7-31,37.5
				c0,16.7,7.8,34.5,29.9,34.5h1.5c11.9,0,18.6-6.9,22.3-13.3v50.3h10.8V43.6h-9.9V57.3z M210.3,84.8c0,19.3-12.6,21.5-22.1,21.5
				c-5.7,0-20.8,0-20.8-26.1c0-13.4,2.5-27.2,20.9-27.2c10.2,0,22,2.4,22,21.4L210.3,84.8z"/>
			<rect id="XMLID_116_" x="117.4" y="0" fill="#000080" width="10.6" height="114.5"/>
			<rect id="XMLID_115_" x="138.5" y="0" fill="#000080" width="10.6" height="26.6"/>
		</g>
	</g>

</g>
</svg>
